<svg width="20" height="20" viewBox="0 0 20 20" fill="none" xmlns="http://www.w3.org/2000/svg">
<path d="M10 1.875C5.52 1.875 1.875 5.52 1.875 10C1.875 14.48 5.52 18.125 10 18.125C14.48 18.125 18.125 14.48 18.125 10C18.125 5.52 14.48 1.875 10 1.875ZM10 3C13.8044 3 16.875 6.19563 16.875 10C16.875 13.8044 13.8044 16.875 10 16.875C6.19563 16.875 3.125 13.8044 3.125 10C3.125 6.19563 6.19563 3 10 3ZM10 6.25C9.65482 6.25 9.375 6.52982 9.375 6.875V9.375H6.875C6.52982 9.375 6.25 9.65482 6.25 10C6.25 10.3452 6.52982 10.625 6.875 10.625H9.375V13.125C9.375 13.4702 9.65482 13.75 10 13.75C10.3452 13.75 10.625 13.4702 10.625 13.125V10.625H13.125C13.4702 10.625 13.75 10.3452 13.75 10C13.75 9.65482 13.4702 9.375 13.125 9.375H10.625V6.875C10.625 6.52982 10.3452 6.25 10 6.25Z" fill="black"/>
</svg>
