<svg width="100%" height="100%" viewBox="0 0 42 42" fill="none" xmlns="http://www.w3.org/2000/svg">
<path d="M20.999 7C13.2658 7 6.99902 13.2685 6.99902 21C6.99902 28.7315 13.2658 35 20.999 35C28.7323 35 34.999 28.7315 34.999 21C34.999 13.2685 28.7323 7 20.999 7ZM27.4863 25.0128C27.8144 25.3409 27.9988 25.7859 27.9988 26.25C27.9988 26.7141 27.8144 27.1591 27.4863 27.4872C27.1581 27.8154 26.7131 27.9997 26.249 27.9997C25.785 27.9997 25.3399 27.8154 25.0118 27.4872L20.999 23.4745L16.9863 27.4872C16.8241 27.6503 16.6313 27.7797 16.419 27.868C16.2067 27.9564 15.979 28.0018 15.749 28.0018C15.5191 28.0018 15.2914 27.9564 15.079 27.868C14.8667 27.7797 14.6739 27.6503 14.5118 27.4872C14.1837 27.1591 13.9994 26.714 13.9994 26.25C13.9994 25.786 14.1837 25.3409 14.5118 25.0128L18.5245 21L14.5118 16.9872C14.1836 16.6591 13.9993 16.2141 13.9993 15.75C13.9993 15.2859 14.1836 14.8409 14.5118 14.5128C14.8399 14.1846 15.285 14.0003 15.749 14.0003C16.2131 14.0003 16.6581 14.1846 16.9863 14.5128L20.999 18.5255L25.0118 14.5128C25.3399 14.1846 25.785 14.0003 26.249 14.0003C26.7131 14.0003 27.1581 14.1846 27.4863 14.5128C27.8144 14.8409 27.9988 15.2859 27.9988 15.75C27.9988 16.2141 27.8144 16.6591 27.4863 16.9872L23.4735 21L27.4863 25.0128Z" fill="#696969"/>
</svg>
