<svg width="100%" height="100%" viewBox="0 0 20 20" fill="none" xmlns="http://www.w3.org/2000/svg">
<g clip-path="url(#clip0_184_1738)">
<path d="M2.92984 17.07C1.97473 16.1476 1.21291 15.0441 0.688821 13.8241C0.164731 12.604 -0.111131 11.2918 -0.122669 9.96403C-0.134207 8.63624 0.11881 7.31944 0.621618 6.09048C1.12443 4.86151 1.86696 3.745 2.80589 2.80607C3.74481 1.86714 4.86133 1.12461 6.09029 0.621801C7.31926 0.118993 8.63605 -0.134024 9.96385 -0.122486C11.2916 -0.110948 12.6038 0.164914 13.8239 0.689004C15.0439 1.21309 16.1474 1.97492 17.0698 2.93002C18.8914 4.81604 19.8994 7.34206 19.8766 9.96403C19.8538 12.586 18.8021 15.0941 16.948 16.9482C15.0939 18.8023 12.5858 19.854 9.96385 19.8768C7.34188 19.8995 4.81586 18.8916 2.92984 17.07ZM8.99984 5.00002V11H10.9998V5.00002H8.99984ZM8.99984 13V15H10.9998V13H8.99984Z" fill="black"/>
</g>
<defs>
<clipPath id="clip0_184_1738">
<rect width="20" height="20" fill="white"/>
</clipPath>
</defs>
</svg>
