<svg width="100%" height="100%" viewBox="0 0 16 16" fill="none" xmlns="http://www.w3.org/2000/svg">
<path d="M5.29344 1.63605C5.10597 1.82358 5.00065 2.07788 5.00065 2.34305C5.00065 2.60821 5.10597 2.86252 5.29344 3.05005L10.2434 8.00005L5.29344 12.95C5.11128 13.1387 5.01049 13.3913 5.01277 13.6535C5.01504 13.9156 5.12021 14.1665 5.30562 14.3519C5.49103 14.5373 5.74184 14.6424 6.00404 14.6447C6.26624 14.647 6.51884 14.5462 6.70744 14.364L12.3644 8.70705C12.5519 8.51952 12.6572 8.26521 12.6572 8.00005C12.6572 7.73488 12.5519 7.48058 12.3644 7.29305L6.70744 1.63605C6.51991 1.44858 6.2656 1.34326 6.00044 1.34326C5.73528 1.34326 5.48097 1.44858 5.29344 1.63605Z" fill="black"/>
</svg>
