<svg width="18" height="18" viewBox="0 0 18 18" fill="none" xmlns="http://www.w3.org/2000/svg">
<g clip-path="url(#clip0_25_2326)">
<path d="M2.79441 10.722L2.01939 14.0668C1.99266 14.1891 1.99358 14.3158 2.02208 14.4377C2.05058 14.5595 2.10594 14.6735 2.18413 14.7712C2.26232 14.869 2.36135 14.948 2.47399 15.0025C2.58663 15.0571 2.71004 15.0858 2.8352 15.0866C2.8935 15.0929 2.9523 15.0929 3.0106 15.0866L6.37579 14.3116L12.837 7.87486L9.23111 4.27716L2.79441 10.722Z" fill="white"/>
<path d="M14.8692 4.65242L12.4626 2.2458C12.3044 2.08837 12.0902 2 11.8671 2C11.6439 2 11.4297 2.08837 11.2715 2.2458L9.93359 3.58372L13.5354 7.18549L14.8733 5.84757C14.9516 5.76888 15.0136 5.67552 15.0558 5.57284C15.0979 5.47015 15.1195 5.36016 15.1191 5.24915C15.1187 5.13814 15.0964 5.0283 15.0536 4.9259C15.0107 4.82351 14.948 4.73058 14.8692 4.65242Z" fill="white"/>
</g>
<defs>
<clipPath id="clip0_25_2326">
<rect width="18" height="18" fill="white"/>
</clipPath>
</defs>
</svg>
