<svg width="100%" height="100%" viewBox="0 0 24 24" fill="none" xmlns="http://www.w3.org/2000/svg">
<path d="M12.197 17.5404L12 17.456L11.803 17.5404L7.60443 19.3398C7.60423 19.3399 7.60404 19.34 7.60384 19.3401C7.08871 19.5588 6.63151 19.5182 6.17315 19.2192C5.71491 18.9203 5.5 18.5237 5.5 17.975V5C5.5 4.58381 5.64245 4.24014 5.94125 3.94185C6.24047 3.64315 6.5846 3.50057 7.00033 3.5H17C17.4162 3.5 17.7604 3.64248 18.0594 3.94155C18.3585 4.24061 18.5005 4.58424 18.5 4.99939V5V17.975C18.5 18.5228 18.2852 18.9197 17.8265 19.2194C17.3683 19.5188 16.9113 19.5594 16.3964 19.3402C16.3962 19.3401 16.3961 19.3401 16.396 19.34L12.197 17.5404ZM16.8025 18.4093L17.5 18.7093V17.95V5V4.5H17H12H7H6.5V5V17.95V18.7093L7.19751 18.4093L12 16.3443L16.8025 18.4093Z" fill="white" stroke="currentColor"/>
</svg>
